<svg width="58" height="75" viewBox="0 0 58 75" fill="none" xmlns="http://www.w3.org/2000/svg">; 
<circle cx="29" cy="29" r="29" fill="#C4C4C4"/> 
<path d="M0.990234 11V2.46875H3.39844C4.14062 2.46875 4.79688 2.63281 5.36719 2.96094C5.9375 3.28906 6.37695 3.75586 6.68555 4.36133C6.99805 4.9668 7.15625 5.66211 7.16016 6.44727V6.99219C7.16016 7.79688 7.00391 8.50195 6.69141 9.10742C6.38281 9.71289 5.93945 10.1777 5.36133 10.502C4.78711 10.8262 4.11719 10.9922 3.35156 11H0.990234ZM2.11523 3.39453V10.0801H3.29883C4.16602 10.0801 4.83984 9.81055 5.32031 9.27148C5.80469 8.73242 6.04688 7.96484 6.04688 6.96875V6.4707C6.04688 5.50195 5.81836 4.75 5.36133 4.21484C4.9082 3.67578 4.26367 3.40234 3.42773 3.39453H2.11523ZM11.3262 11.1172C10.4668 11.1172 9.76758 10.8359 9.22852 10.2734C8.68945 9.70703 8.41992 8.95117 8.41992 8.00586V7.80664C8.41992 7.17773 8.53906 6.61719 8.77734 6.125C9.01953 5.62891 9.35547 5.24219 9.78516 4.96484C10.2188 4.68359 10.6875 4.54297 11.1914 4.54297C12.0156 4.54297 12.6562 4.81445 13.1133 5.35742C13.5703 5.90039 13.7988 6.67773 13.7988 7.68945V8.14062H9.50391C9.51953 8.76562 9.70117 9.27148 10.0488 9.6582C10.4004 10.041 10.8457 10.2324 11.3848 10.2324C11.7676 10.2324 12.0918 10.1543 12.3574 9.99805C12.623 9.8418 12.8555 9.63477 13.0547 9.37695L13.7168 9.89258C13.1855 10.709 12.3887 11.1172 11.3262 11.1172ZM11.1914 5.43359C10.7539 5.43359 10.3867 5.59375 10.0898 5.91406C9.79297 6.23047 9.60938 6.67578 9.53906 7.25H12.7148V7.16797C12.6836 6.61719 12.5352 6.19141 12.2695 5.89062C12.0039 5.58594 11.6445 5.43359 11.1914 5.43359ZM16.2363 11H15.1523V2H16.2363V11ZM20.6074 11.1172C19.748 11.1172 19.0488 10.8359 18.5098 10.2734C17.9707 9.70703 17.7012 8.95117 17.7012 8.00586V7.80664C17.7012 7.17773 17.8203 6.61719 18.0586 6.125C18.3008 5.62891 18.6367 5.24219 19.0664 4.96484C19.5 4.68359 19.9688 4.54297 20.4727 4.54297C21.2969 4.54297 21.9375 4.81445 22.3945 5.35742C22.8516 5.90039 23.0801 6.67773 23.0801 7.68945V8.14062H18.7852C18.8008 8.76562 18.9824 9.27148 19.3301 9.6582C19.6816 10.041 20.127 10.2324 20.666 10.2324C21.0488 10.2324 21.373 10.1543 21.6387 9.99805C21.9043 9.8418 22.1367 9.63477 22.3359 9.37695L22.998 9.89258C22.4668 10.709 21.6699 11.1172 20.6074 11.1172ZM20.4727 5.43359C20.0352 5.43359 19.668 5.59375 19.3711 5.91406C19.0742 6.23047 18.8906 6.67578 18.8203 7.25H21.9961V7.16797C21.9648 6.61719 21.8164 6.19141 21.5508 5.89062C21.2852 5.58594 20.9258 5.43359 20.4727 5.43359ZM25.8105 3.125V4.66016H26.9941V5.49805H25.8105V9.42969C25.8105 9.68359 25.8633 9.875 25.9688 10.0039C26.0742 10.1289 26.2539 10.1914 26.5078 10.1914C26.6328 10.1914 26.8047 10.168 27.0234 10.1211V11C26.7383 11.0781 26.4609 11.1172 26.1914 11.1172C25.707 11.1172 25.3418 10.9707 25.0957 10.6777C24.8496 10.3848 24.7266 9.96875 24.7266 9.42969V5.49805H23.5723V4.66016H24.7266V3.125H25.8105ZM30.8965 11.1172C30.0371 11.1172 29.3379 10.8359 28.7988 10.2734C28.2598 9.70703 27.9902 8.95117 27.9902 8.00586V7.80664C27.9902 7.17773 28.1094 6.61719 28.3477 6.125C28.5898 5.62891 28.9258 5.24219 29.3555 4.96484C29.7891 4.68359 30.2578 4.54297 30.7617 4.54297C31.5859 4.54297 32.2266 4.81445 32.6836 5.35742C33.1406 5.90039 33.3691 6.67773 33.3691 7.68945V8.14062H29.0742C29.0898 8.76562 29.2715 9.27148 29.6191 9.6582C29.9707 10.041 30.416 10.2324 30.9551 10.2324C31.3379 10.2324 31.6621 10.1543 31.9277 9.99805C32.1934 9.8418 32.4258 9.63477 32.625 9.37695L33.2871 9.89258C32.7559 10.709 31.959 11.1172 30.8965 11.1172ZM30.7617 5.43359C30.3242 5.43359 29.957 5.59375 29.6602 5.91406C29.3633 6.23047 29.1797 6.67578 29.1094 7.25H32.2852V7.16797C32.2539 6.61719 32.1055 6.19141 31.8398 5.89062C31.5742 5.58594 31.2148 5.43359 30.7617 5.43359Z" transform="translate(12 60)" fill="black"/> 
<path d="M16.6431 29.7143L29.8943 13.2571C31.1366 11.6571 31.1366 9.14286 29.6872 7.54286L24.0969 1.37143C23.4757 0.457143 22.4405 0 21.4052 0H17.6783C16.6431 0 15.6078 0.457143 14.7796 1.37143L0.907336 18.7429C-0.334961 20.3429 -0.334961 23.0857 1.11439 24.4571L6.70472 30.6286C7.32587 31.5429 8.36112 32 9.39636 32H33V29.7143H16.6431ZM13.9515 29.4857C13.9515 29.4857 13.9515
29.2571 13.9515 29.4857L8.36112 23.3143C7.53292 22.4 7.53292 21.2571 8.36112 20.3429L15.4008 11.4286H13.3303L7.11882 18.9714C5.87652 20.5714 5.87652 22.8571 7.32587 24.4571L12.088 29.7143H9.39636C8.98226 29.7143 8.56817 29.4857 8.15407 29.2571L2.35668 22.8571C1.73553 22.1714 1.73553 21.0286 2.35668 20.3429L9.60341 11.4286H13.3303L20.577 2.28571H22.6475L15.4008 11.4286L21.8193 19.8857L14.5726 29.0286C14.3656 29.2571 14.1585 29.2571 13.9515 29.4857Z" transform="translate(13 14)" fill="#444444"/> 
</svg>