<svg width="58" height="71" viewBox="0 0 58 71" fill="none" xmlns="http://www.w3.org/2000/svg">; 
<circle cx="29" cy="29" r="29" fill="#C4C4C4"/> 
<path d="M1.35135 0H0V1.33333H1.35135V0Z" transform="translate(37.1082 41.3333)" fill="black"/> 
<path d="M49.3243 34.6667H48.6486V16.6667C48.6486 15.1939 47.4386 14 45.9459 14H40.5405V5.33333C40.5372 2.38917 38.1191 0.00333333 35.1351 0H5.40541C2.42145 0.00333333 0.00337838 2.38917 0 5.33333V26.6667C0.00337838 29.6108 2.42145 31.9967 5.40541 32H11.9723L10.9588 36H4.72973C3.61022 36 2.7027 36.8954 2.7027 38C2.7027 39.1046 3.61022 40 4.72973 40H47.2973C48.7899 40 50 38.8061 50 37.3333V35.3333C50 34.9652 49.6975 34.6667 49.3243 34.6667ZM45.9459 15.3333C46.6923 15.3333 47.2973 15.9303 47.2973 16.6667V34.6667H39.8649C39.6856 34.6667 39.5139 34.737 39.3872 34.862L38.2338 36H29.3338L28.1804 34.862C28.0537 34.737 27.8819 34.6667 27.7027 34.6667H20.2703V16.6667C20.2703 15.9303 20.8753 15.3333 21.6216 15.3333H45.9459ZM18.9189 16.6667V25.3333H6.08108C5.33471 25.3333 4.72973 24.7364 4.72973 24V6C4.72973 5.26358 5.33471 4.66667 6.08108 4.66667H34.4304C35.1768 4.66667 35.7818 5.26358 35.7818 6V14H21.6216C20.129 14 18.9189 15.1939 18.9189 16.6667ZM5.40541 30.6667C3.16731 30.6645 1.35355 28.8749 1.35135 26.6667V5.33333C1.35355 3.12508 3.16731 1.3355 5.40541 1.33333H35.1351C37.3732 1.3355 39.187 3.12508 39.1892 5.33333V14H37.1331V6C37.1331 4.52725 35.9231 3.33333 34.4304 3.33333H6.08108C4.58843 3.33333 3.37838 4.52725 3.37838 6V24C3.37838 25.4727 4.58843 26.6667 6.08108 26.6667H18.9189V30.6667H5.40541ZM4.72973 38.6667C4.35659 38.6667 4.05405 38.3682 4.05405 38C4.05405 37.6318 4.35659 37.3333 4.72973 37.3333H17.5676C17.5704 37.8028 17.7001 38.2631 17.9432 38.6667H4.72973ZM17.5676 35.3333V36H12.352L13.3655 32H18.9189V34.6667H18.2432C17.8701 34.6667 17.5676 34.9652 17.5676 35.3333ZM48.6486 37.3333C48.6486 38.0698 48.0437 38.6667 47.2973 38.6667H20.2703C19.5239 38.6667 18.9189 38.0698 18.9189 37.3333V36H27.423L28.5764 37.138C28.703 37.263 28.8748 37.3333 29.0541 37.3333H38.5135C38.6927 37.3333 38.8645 37.263 38.9912 37.138L40.1446 36H48.6486V37.3333Z" transform="translate(4 8)" fill="black"/> 
<path d="M23.6486 0H0.675676C0.302534 0 0 0.2985 0 0.666667V14.6667C0 15.0348 0.302534 15.3333 0.675676 15.3333H23.6486C24.0218 15.3333 24.3243 15.0348 24.3243 14.6667V0.666667C24.3243 0.2985 24.0218 0 23.6486 0ZM22.973 14H1.35135V1.33333H22.973V14Z" transform="translate(25.6216 24.6667)" fill="black"/> 
<path d="M1.36351 0C0.610811 0.00075 0.000760135 0.602666 0 1.34533V5.33333H1.35135L1.36351 1.33333H11.4865V0H1.36351Z" transform="translate(10.7568 14.6666)" fill="black"/> 
<path d="M1.35135 0H0V1.33333H1.35135V0Z" transform="translate(23.5946 14.6666)" fill="black"/> 
<path d="M1.36351 0C0.610812 0.00075 0.000760135 0.602668 0 1.34533V4.66667H1.35135L1.36351 1.33333H6.08108V0H1.36351Z" transform="translate(28.3243 27.3333)" fill="black"/> 
<path d="M1.35135 0H0V1.33333H1.35135V0Z" transform="translate(35.7568 27.3333)" fill="black"/> 
<path d="M7.26562 8.29297C7.16016 9.19531 6.82617 9.89258 6.26367 10.3848C5.70508 10.873 4.96094 11.1172 4.03125 11.1172C3.02344 11.1172 2.21484 10.7559 1.60547 10.0332C1 9.31055 0.697266 8.34375 0.697266 7.13281V6.3125C0.697266 5.51953 0.837891 4.82227 1.11914 4.2207C1.4043 3.61914 1.80664 3.1582 2.32617 2.83789C2.8457 2.51367 3.44727 2.35156 4.13086 2.35156C5.03711 2.35156 5.76367 2.60547 6.31055 3.11328C6.85742 3.61719 7.17578 4.31641 7.26562 5.21094H6.13477C6.03711 4.53125 5.82422 4.03906 5.49609 3.73438C5.17188 3.42969 4.7168 3.27734 4.13086 3.27734C3.41211 3.27734 2.84766 3.54297 2.4375 4.07422C2.03125 4.60547 1.82812 5.36133 1.82812 6.3418V7.16797C1.82812 8.09375 2.02148 8.83008 2.4082 9.37695C2.79492 9.92383 3.33594 10.1973 4.03125 10.1973C4.65625 10.1973 5.13477 10.0566 5.4668 9.77539C5.80273 9.49023 6.02539 8.99609 6.13477 8.29297H7.26562ZM8.34961 7.77148C8.34961 7.15039 8.4707 6.5918 8.71289 6.0957C8.95898 5.59961 9.29883 5.2168 9.73242 4.94727C10.1699 4.67773 10.668 4.54297 11.2266 4.54297C12.0898 4.54297 12.7871 4.8418 13.3184 5.43945C13.8535 6.03711 14.1211
6.83203 14.1211 7.82422V7.90039C14.1211 8.51758 14.002 9.07227 13.7637 9.56445C13.5293 10.0527 13.1914 10.4336 12.75 10.707C12.3125 10.9805 11.8086 11.1172 11.2383 11.1172C10.3789 11.1172 9.68164 10.8184 9.14648 10.2207C8.61523 9.62305 8.34961 8.83203 8.34961 7.84766V7.77148ZM9.43945 7.90039C9.43945 8.60352 9.60156 9.16797 9.92578 9.59375C10.2539 10.0195 10.6914 10.2324 11.2383 10.2324C11.7891 10.2324 12.2266 10.0176 12.5508 9.58789C12.875 9.1543 13.0371 8.54883 13.0371 7.77148C13.0371 7.07617 12.8711 6.51367 12.5391 6.08398C12.2109 5.65039 11.7734 5.43359 11.2266 5.43359C10.6914 5.43359 10.2598 5.64648 9.93164 6.07227C9.60352 6.49805 9.43945 7.10742 9.43945 7.90039ZM16.5 4.66016L16.5293 5.36328C16.9941 4.81641 17.6211 4.54297 18.4102 4.54297C19.2969 4.54297 19.9004 4.88281 20.2207 5.5625C20.4316 5.25781 20.7051 5.01172 21.041 4.82422C21.3809 4.63672 21.7812 4.54297 22.2422 4.54297C23.6328 4.54297 24.3398 5.2793 24.3633 6.75195V11H23.2793V6.81641C23.2793 6.36328 23.1758 6.02539 22.9688 5.80273C22.7617 5.57617 22.4141 5.46289 21.9258 5.46289C21.5234 5.46289 21.1895 5.58398 20.9238 5.82617C20.6582 6.06445 20.5039 6.38672 20.4609 6.79297V11H19.3711V6.8457C19.3711 5.92383 18.9199 5.46289 18.0176 5.46289C17.3066 5.46289 16.8203 5.76562 16.5586 6.37109V11H15.4746V4.66016H16.5ZM31.3594 7.90039C31.3594 8.86523 31.1387 9.64258 30.6973 10.2324C30.2559 10.8223 29.6582 11.1172 28.9043 11.1172C28.1348 11.1172 27.5293 10.873 27.0879 10.3848V13.4375H26.0039V4.66016H26.9941L27.0469 5.36328C27.4883 4.81641 28.1016 4.54297 28.8867 4.54297C29.6484 4.54297 30.25 4.83008 30.6914 5.4043C31.1367 5.97852 31.3594 6.77734 31.3594 7.80078V7.90039ZM30.2754 7.77734C30.2754 7.0625 30.123 6.49805 29.8184 6.08398C29.5137 5.66992 29.0957 5.46289 28.5645 5.46289C27.9082 5.46289 27.416 5.75391 27.0879 6.33594V9.36523C27.4121 9.94336 27.9082 10.2324 28.5762 10.2324C29.0957 10.2324 29.5078 10.0273 29.8125 9.61719C30.1211 9.20312 30.2754 8.58984 30.2754 7.77734ZM36.6562 10.373C36.2344 10.8691 35.6152 11.1172 34.7988 11.1172C34.123 11.1172 33.6074 10.9219 33.252 10.5312C32.9004 10.1367 32.7227 9.55469 32.7188 8.78516V4.66016H33.8027V8.75586C33.8027 9.7168 34.1934 10.1973 34.9746 10.1973C35.8027 10.1973 36.3535 9.88867 36.627 9.27148V4.66016H37.7109V11H36.6797L36.6562 10.373ZM40.834 3.125V4.66016H42.0176V5.49805H40.834V9.42969C40.834 9.68359 40.8867 9.875 40.9922 10.0039C41.0977 10.1289 41.2773 10.1914 41.5312 10.1914C41.6562 10.1914 41.8281 10.168 42.0469 10.1211V11C41.7617 11.0781 41.4844 11.1172 41.2148 11.1172C40.7305 11.1172 40.3652 10.9707 40.1191 10.6777C39.873 10.3848 39.75 9.96875 39.75 9.42969V5.49805H38.5957V4.66016H39.75V3.125H40.834ZM45.9199 11.1172C45.0605 11.1172 44.3613 10.8359 43.8223 10.2734C43.2832 9.70703 43.0137 8.95117 43.0137 8.00586V7.80664C43.0137 7.17773 43.1328 6.61719 43.3711 6.125C43.6133 5.62891 43.9492 5.24219 44.3789 4.96484C44.8125 4.68359 45.2812 4.54297 45.7852 4.54297C46.6094 4.54297 47.25 4.81445 47.707 5.35742C48.1641 5.90039 48.3926 6.67773 48.3926 7.68945V8.14062H44.0977C44.1133 8.76562 44.2949 9.27148 44.6426 9.6582C44.9941 10.041 45.4395 10.2324 45.9785 10.2324C46.3613 10.2324 46.6855 10.1543 46.9512 9.99805C47.2168 9.8418 47.4492 9.63477 47.6484 9.37695L48.3105 9.89258C47.7793 10.709 46.9824 11.1172 45.9199 11.1172ZM45.7852 5.43359C45.3477 5.43359 44.9805 5.59375 44.6836 5.91406C44.3867 6.23047 44.2031 6.67578 44.1328 7.25H47.3086V7.16797C47.2773 6.61719 47.1289 6.19141 46.8633 5.89062C46.5977 5.58594 46.2383 5.43359 45.7852 5.43359ZM52.7168 5.63281C52.5527 5.60547 52.375 5.5918 52.1836 5.5918C51.4727 5.5918 50.9902 5.89453 50.7363 6.5V11H49.6523V4.66016H50.707L50.7246 5.39258C51.0801 4.82617 51.584 4.54297 52.2363 4.54297C52.4473 4.54297 52.6074 4.57031 52.7168 4.625V5.63281Z" transform="translate(3 56)" fill="black"/> 
</svg>