<svg width="58" height="71" viewBox="0 0 58 71" fill="none" xmlns="http://www.w3.org/2000/svg">; 
<circle cx="29" cy="29" r="29" fill="#C4C4C4"/> 
<path d="M1.35135 0H0V1.33333H1.35135V0Z" transform="translate(37.1082 41.3333)" fill="black"/> 
<path d="M49.3243 34.6667H48.6486V16.6667C48.6486 15.1939 47.4386 14 45.9459 14H40.5405V5.33333C40.5372 2.38917 38.1191 0.00333333 35.1351 0H5.40541C2.42145 0.00333333 0.00337838 2.38917 0 5.33333V26.6667C0.00337838 29.6108 2.42145 31.9967 5.40541 32H11.9723L10.9588 36H4.72973C3.61022 36 2.7027 36.8954 2.7027 38C2.7027 39.1046 3.61022 40 4.72973 40H47.2973C48.7899 40 50 38.8061 50 37.3333V35.3333C50 34.9652 49.6975 34.6667 49.3243 34.6667ZM45.9459 15.3333C46.6923 15.3333 47.2973 15.9303 47.2973 16.6667V34.6667H39.8649C39.6856 34.6667 39.5139 34.737 39.3872 34.862L38.2338 36H29.3338L28.1804 34.862C28.0537 34.737 27.8819 34.6667 27.7027 34.6667H20.2703V16.6667C20.2703 15.9303 20.8753 15.3333 21.6216 15.3333H45.9459ZM18.9189 16.6667V25.3333H6.08108C5.33471 25.3333 4.72973 24.7364 4.72973 24V6C4.72973 5.26358 5.33471 4.66667 6.08108 4.66667H34.4304C35.1768 4.66667 35.7818 5.26358 35.7818 6V14H21.6216C20.129 14 18.9189 15.1939 18.9189 16.6667ZM5.40541 30.6667C3.16731 30.6645 1.35355 28.8749 1.35135 26.6667V5.33333C1.35355 3.12508 3.16731 1.3355 5.40541 1.33333H35.1351C37.3732 1.3355 39.187 3.12508 39.1892 5.33333V14H37.1331V6C37.1331 4.52725 35.9231 3.33333 34.4304 3.33333H6.08108C4.58843 3.33333 3.37838 4.52725 3.37838 6V24C3.37838 25.4727 4.58843 26.6667 6.08108 26.6667H18.9189V30.6667H5.40541ZM4.72973 38.6667C4.35659 38.6667 4.05405 38.3682 4.05405 38C4.05405 37.6318 4.35659 37.3333 4.72973 37.3333H17.5676C17.5704 37.8028 17.7001 38.2631 17.9432 38.6667H4.72973ZM17.5676 35.3333V36H12.352L13.3655 32H18.9189V34.6667H18.2432C17.8701 34.6667 17.5676 34.9652 17.5676 35.3333ZM48.6486 37.3333C48.6486 38.0698 48.0437 38.6667 47.2973 38.6667H20.2703C19.5239 38.6667 18.9189 38.0698 18.9189 37.3333V36H27.423L28.5764 37.138C28.703 37.263 28.8748 37.3333 29.0541 37.3333H38.5135C38.6927 37.3333 38.8645 37.263 38.9912 37.138L40.1446 36H48.6486V37.3333Z" transform="translate(4 8)" fill="black"/> 
<path d="M23.6486 0H0.675676C0.302534 0 0 0.2985 0 0.666667V14.6667C0 15.0348 0.302534 15.3333 0.675676 15.3333H23.6486C24.0218 15.3333 24.3243 15.0348 24.3243 14.6667V0.666667C24.3243 0.2985 24.0218 0 23.6486 0ZM22.973 14H1.35135V1.33333H22.973V14Z" transform="translate(25.6216 24.6667)" fill="black"/> 
<path d="M1.36351 0C0.610811 0.00075 0.000760135 0.602666 0 1.34533V5.33333H1.35135L1.36351 1.33333H11.4865V0H1.36351Z" transform="translate(10.7568 14.6666)" fill="black"/> 
<path d="M1.35135 0H0V1.33333H1.35135V0Z" transform="translate(23.5946 14.6666)" fill="black"/> 
<path d="M1.36351 0C0.610812 0.00075 0.000760135 0.602668 0 1.34533V4.66667H1.35135L1.36351 1.33333H6.08108V0H1.36351Z" transform="translate(28.3243 27.3333)" fill="black"/> 
<path d="M1.35135 0H0V1.33333H1.35135V0Z" transform="translate(35.7568 27.3333)" fill="black"/> 
</svg>