<svg width="58" height="73" viewBox="0 0 58 73" fill="none" xmlns="http://www.w3.org/2000/svg">; 
<circle cx="29" cy="29" r="29" fill="#C4C4C4"/> 
<path d="M38.35 15.1998H33.8V1.89997C33.8 0.850634 32.927 -2.60922e-07 31.85 -2.60922e-07C30.773 -2.60922e-07 29.9 0.850634 29.9 1.89997V15.1998H9.1V1.89997C9.1 0.850634 8.22697 -2.60922e-07 7.15 -2.60922e-07C6.07303 -2.60922e-07 5.2 0.850634 5.2 1.89997V15.1998H0.65C0.291037 15.1998 0 15.4834 0 15.8331V27.233C0 27.5827 0.291037 27.8663 0.65 27.8663H4.55V29.7663H9.75V27.8663H29.25V29.7663H34.45V27.8663H38.35C38.709 27.8663 39 27.5827 39 27.233V15.8331C39 15.4834 38.709 15.1998 38.35 15.1998ZM31.2 1.89997C31.2 1.55022 31.491 1.26665 31.85 1.26665C32.209 1.26665 32.5 1.55022 32.5 1.89997V15.1998H31.2V1.89997ZM6.5 1.89997C6.5 1.55022 6.79104 1.26665 7.15 1.26665C7.50896 1.26665 7.8 1.55022 7.8 1.89997V15.1998H6.5V1.89997ZM8.45 28.4996H5.85V27.8663H8.45V28.4996ZM33.15 28.4996H30.55V27.8663H33.15V28.4996ZM37.7 26.5996H1.3V16.4664H37.7V26.5996Z" transform="translate(10 16.2338)" fill="black"/> 
<path d="M1.95 9.47049e-07C0.87303 9.47049e-07 -7.53784e-07 0.850635 -7.53784e-07 1.89998C-7.53784e-07 2.94932 0.87303 3.79995 1.95 3.79995C3.02697 3.79995 3.9 2.94932 3.9 1.89998C3.9 0.850635 3.02697 9.47049e-07 1.95 9.47049e-07ZM1.95 2.5333C1.59104 2.5333 1.3 2.24973 1.3 1.89998C1.3 1.55022 1.59104 1.26665 1.95 1.26665C2.30896 1.26665 2.6 1.55022 2.6 1.89998C2.6 2.24973 2.30896 2.5333 1.95 2.5333Z" transform="translate(30.7999 35.8668)" fill="black"/> 
<path d="M1.95 9.47049e-07C0.87303 9.47049e-07 -7.53784e-07 0.850635 -7.53784e-07 1.89998C-7.53784e-07 2.94932 0.87303 3.79995 1.95 3.79995C3.02697 3.79995 3.9 2.94932 3.9 1.89998C3.9 0.850635 3.02697 9.47049e-07 1.95 9.47049e-07ZM1.95 2.5333C1.59104 2.5333 1.3 2.24973 1.3 1.89998C1.3 1.55022 1.59104 1.26665 1.95 1.26665C2.30896 1.26665 2.6 1.55022 2.6 1.89998C2.6 2.24973 2.30896 2.5333 1.95 2.5333Z" transform="translate(36 35.8668)" fill="black"/> 
<path d="M1.95 9.47049e-07C0.87303 9.47049e-07 -7.53784e-07 0.850635 -7.53784e-07 1.89998C-7.53784e-07 2.94932 0.87303 3.79995 1.95 3.79995C3.02697 3.79995 3.9 2.94932 3.9 1.89998C3.9 0.850635 3.02697 9.47049e-07 1.95 9.47049e-07ZM1.95 2.5333C1.59104 2.5333 1.3 2.24973 1.3 1.89998C1.3 1.55022 1.59104 1.26665 1.95 1.26665C2.30896 1.26665 2.6 1.55022 2.6 1.89998C2.6 2.24973 2.30896 2.5333 1.95 2.5333Z" transform="translate(41.2 35.8668)" fill="black"/> 
<path d="M12.35 9.47049e-07H0.65C0.291037 9.47049e-07 -1.33896e-07 0.283572 -1.33896e-07 0.633326V4.43327C-1.33896e-07 4.78303 0.291037 5.0666 0.65 5.0666H12.35C12.709 5.0666 13 4.78303 13 4.43327V0.633326C13 0.283572 12.709 9.47049e-07 12.35 9.47049e-07ZM11.7 3.79995H1.3V1.26665H11.7V3.79995Z" transform="translate(13.9 35.2335)" fill="black"/> 
<path d="M13.9781 2.78144C10.1707 -0.927148 3.99894 -0.927148 0.191569 2.78144C-0.0629876 3.0282 -0.0639613 3.42926 0.189295 3.67728C0.442551 3.92531 0.854162 3.92626 1.10872 3.6795C4.40804 0.463633 9.75835 0.462763 13.0588 3.67744C13.0595 3.67815 13.0602 3.67879 13.0609 3.6795C13.3155 3.92626 13.7271 3.92531 13.9803 3.67728C14.2336 3.42934 14.2326 3.0282 13.9781 2.78144Z" transform="translate(34.7651 8)" fill="black"/> 
<path d="M10.2926 2.0413C7.50297 -0.678914 2.97832 -0.680655 0.186486 2.03742C0.185186 2.03868 0.183804 2.04003 0.182504 2.0413C-0.0669339 2.29288 -0.0597828 2.69378 0.19843 2.93682C0.450305 3.17392 0.849729 3.17392 1.1016 2.93682C3.38603 0.711709 7.08908 0.711709 9.37351 2.93682C9.49538 3.05557 9.66064 3.12238 9.83305 3.12238C10.192 3.1223 10.483 2.83873 10.4829 2.4889C10.4829 2.32107 10.4145 2.16004 10.2926 2.0413Z" transform="translate(36.6124 10.5337)" fill="black"/> 
<path d="M6.62459 1.30152C4.85342 -0.429833 1.97701 -0.434425 0.200076 1.29131C0.196582 1.29471 0.193088 1.29811 0.189594 1.30152H0.188293C-0.0643948 1.55002 -0.0625259 1.95115 0.192518 2.19736C0.447562 2.44356 0.859256 2.44174 1.11194 2.19324C2.37701 0.958573 4.42987 0.956831 5.69713 2.18952C5.69843 2.19078 5.69964 2.19197 5.70094 2.19324C5.95363 2.44174 6.36532 2.44356 6.62037 2.19736C6.87541 1.95115 6.87736 1.5501 6.62459
1.30152Z" transform="translate(38.4436 13.0677)" fill="black"/> 
<path d="M13.9781 2.78144C10.1707 -0.927148 3.99894 -0.927148 0.191569 2.78144C-0.0629871 3.0282 -0.0639621 3.42926 0.189294 3.67728C0.44255 3.92531 0.854163 3.92626 1.10872 3.6795C4.40812 0.463713 9.75835 0.462762 13.0588 3.67752C13.0595 3.67823 13.0602 3.67886 13.0609 3.67958C13.3155 3.92634 13.7271 3.92539 13.9803 3.67736C14.2336 3.42933 14.2326 3.0282 13.9781 2.78144Z" transform="translate(10.0652 8)" fill="black"/> 
<path d="M10.2926 2.0413C7.50294 -0.678914 2.97829 -0.680655 0.186455 2.03742C0.185155 2.03868 0.183773 2.04003 0.182473 2.0413C-0.0668828 2.29288 -0.0598141 2.69386 0.198398 2.93682C0.450273 3.17384 0.849617 3.17384 1.10157 2.93682C3.386 0.711709 7.08905 0.711709 9.37347 2.93682C9.49535 3.05557 9.66061 3.12238 9.83302 3.12238C10.192 3.1223 10.4829 2.83873 10.4829 2.4889C10.4829 2.32107 10.4144 2.16004 10.2926 2.0413Z" transform="translate(11.9125 10.5337)" fill="black"/> 
<path d="M6.62459 1.30152C4.85342 -0.429833 1.97701 -0.434425 0.200075 1.29131C0.196581 1.29471 0.193087 1.29811 0.189594 1.30152H0.188294C-0.0643939 1.55002 -0.0625253 1.95115 0.192518 2.19736C0.447562 2.44356 0.859256 2.44174 1.11194 2.19324C2.37701 0.958573 4.42987 0.956831 5.69712 2.18952C5.69842 2.19078 5.69972 2.19197 5.70094 2.19324C5.95363 2.44174 6.36532 2.44356 6.62037 2.19736C6.87541 1.95115 6.87736 1.5501 6.62459 1.30152Z" transform="translate(13.7435 13.0677)" fill="black"/> 
</svg>