<svg width="58" height="73" viewBox="0 0 58 73" fill="none" xmlns="http://www.w3.org/2000/svg">; 
<circle cx="29" cy="29" r="29" fill="#C4C4C4"/> 
<path d="M38.35 15.1998H33.8V1.89997C33.8 0.850634 32.927 -2.60922e-07 31.85 -2.60922e-07C30.773 -2.60922e-07 29.9 0.850634 29.9 1.89997V15.1998H9.1V1.89997C9.1 0.850634 8.22697 -2.60922e-07 7.15 -2.60922e-07C6.07303 -2.60922e-07 5.2 0.850634 5.2 1.89997V15.1998H0.65C0.291037 15.1998 0 15.4834 0 15.8331V27.233C0 27.5827 0.291037 27.8663 0.65 27.8663H4.55V29.7663H9.75V27.8663H29.25V29.7663H34.45V27.8663H38.35C38.709 27.8663 39 27.5827 39 27.233V15.8331C39 15.4834 38.709 15.1998 38.35 15.1998ZM31.2 1.89997C31.2 1.55022 31.491 1.26665 31.85 1.26665C32.209 1.26665 32.5 1.55022 32.5 1.89997V15.1998H31.2V1.89997ZM6.5 1.89997C6.5 1.55022 6.79104 1.26665 7.15 1.26665C7.50896 1.26665 7.8 1.55022 7.8 1.89997V15.1998H6.5V1.89997ZM8.45 28.4996H5.85V27.8663H8.45V28.4996ZM33.15 28.4996H30.55V27.8663H33.15V28.4996ZM37.7 26.5996H1.3V16.4664H37.7V26.5996Z" transform="translate(10 16.2338)" fill="black"/> 
<path d="M1.95 9.47049e-07C0.87303 9.47049e-07 -7.53784e-07 0.850635 -7.53784e-07 1.89998C-7.53784e-07 2.94932 0.87303 3.79995 1.95 3.79995C3.02697 3.79995 3.9 2.94932 3.9 1.89998C3.9 0.850635 3.02697 9.47049e-07 1.95 9.47049e-07ZM1.95 2.5333C1.59104 2.5333 1.3 2.24973 1.3 1.89998C1.3 1.55022 1.59104 1.26665 1.95 1.26665C2.30896 1.26665 2.6 1.55022 2.6 1.89998C2.6 2.24973 2.30896 2.5333 1.95 2.5333Z" transform="translate(30.7999 35.8668)" fill="black"/> 
<path d="M1.95 9.47049e-07C0.87303 9.47049e-07 -7.53784e-07 0.850635 -7.53784e-07 1.89998C-7.53784e-07 2.94932 0.87303 3.79995 1.95 3.79995C3.02697 3.79995 3.9 2.94932 3.9 1.89998C3.9 0.850635 3.02697 9.47049e-07 1.95 9.47049e-07ZM1.95 2.5333C1.59104 2.5333 1.3 2.24973 1.3 1.89998C1.3 1.55022 1.59104 1.26665 1.95 1.26665C2.30896 1.26665 2.6 1.55022 2.6 1.89998C2.6 2.24973 2.30896 2.5333 1.95 2.5333Z" transform="translate(36 35.8668)" fill="black"/> 
<path d="M1.95 9.47049e-07C0.87303 9.47049e-07 -7.53784e-07 0.850635 -7.53784e-07 1.89998C-7.53784e-07 2.94932 0.87303 3.79995 1.95 3.79995C3.02697 3.79995 3.9 2.94932 3.9 1.89998C3.9 0.850635 3.02697 9.47049e-07 1.95 9.47049e-07ZM1.95 2.5333C1.59104 2.5333 1.3 2.24973 1.3 1.89998C1.3 1.55022 1.59104 1.26665 1.95 1.26665C2.30896 1.26665 2.6 1.55022 2.6 1.89998C2.6 2.24973 2.30896 2.5333 1.95 2.5333Z" transform="translate(41.2 35.8668)" fill="black"/> 
<path d="M12.35 9.47049e-07H0.65C0.291037 9.47049e-07 -1.33896e-07 0.283572 -1.33896e-07 0.633326V4.43327C-1.33896e-07 4.78303 0.291037 5.0666 0.65 5.0666H12.35C12.709 5.0666 13 4.78303 13 4.43327V0.633326C13 0.283572 12.709 9.47049e-07 12.35 9.47049e-07ZM11.7 3.79995H1.3V1.26665H11.7V3.79995Z" transform="translate(13.9 35.2335)" fill="black"/> 
<path d="M13.9781 2.78144C10.1707 -0.927148 3.99894 -0.927148 0.191569 2.78144C-0.0629876 3.0282 -0.0639613 3.42926 0.189295 3.67728C0.442551 3.92531 0.854162 3.92626 1.10872 3.6795C4.40804 0.463633 9.75835 0.462763 13.0588 3.67744C13.0595 3.67815 13.0602 3.67879 13.0609 3.6795C13.3155 3.92626 13.7271 3.92531 13.9803 3.67728C14.2336 3.42934 14.2326 3.0282 13.9781 2.78144Z" transform="translate(34.7651 8)" fill="black"/> 
<path d="M10.2926 2.0413C7.50297 -0.678914 2.97832 -0.680655 0.186486 2.03742C0.185186 2.03868 0.183804 2.04003 0.182504 2.0413C-0.0669339 2.29288 -0.0597828 2.69378 0.19843 2.93682C0.450305 3.17392 0.849729 3.17392 1.1016 2.93682C3.38603 0.711709 7.08908 0.711709 9.37351 2.93682C9.49538 3.05557 9.66064 3.12238 9.83305 3.12238C10.192 3.1223 10.483 2.83873 10.4829 2.4889C10.4829 2.32107 10.4145 2.16004 10.2926 2.0413Z" transform="translate(36.6124 10.5337)" fill="black"/> 
<path d="M6.62459 1.30152C4.85342 -0.429833 1.97701 -0.434425 0.200076 1.29131C0.196582 1.29471 0.193088 1.29811 0.189594 1.30152H0.188293C-0.0643948 1.55002 -0.0625259 1.95115 0.192518 2.19736C0.447562 2.44356 0.859256 2.44174 1.11194 2.19324C2.37701 0.958573 4.42987 0.956831 5.69713 2.18952C5.69843 2.19078 5.69964 2.19197 5.70094 2.19324C5.95363 2.44174 6.36532 2.44356 6.62037 2.19736C6.87541 1.95115 6.87736 1.5501 6.62459
1.30152Z" transform="translate(38.4436 13.0677)" fill="black"/> 
<path d="M13.9781 2.78144C10.1707 -0.927148 3.99894 -0.927148 0.191569 2.78144C-0.0629871 3.0282 -0.0639621 3.42926 0.189294 3.67728C0.44255 3.92531 0.854163 3.92626 1.10872 3.6795C4.40812 0.463713 9.75835 0.462762 13.0588 3.67752C13.0595 3.67823 13.0602 3.67886 13.0609 3.67958C13.3155 3.92634 13.7271 3.92539 13.9803 3.67736C14.2336 3.42933 14.2326 3.0282 13.9781 2.78144Z" transform="translate(10.0652 8)" fill="black"/> 
<path d="M10.2926 2.0413C7.50294 -0.678914 2.97829 -0.680655 0.186455 2.03742C0.185155 2.03868 0.183773 2.04003 0.182473 2.0413C-0.0668828 2.29288 -0.0598141 2.69386 0.198398 2.93682C0.450273 3.17384 0.849617 3.17384 1.10157 2.93682C3.386 0.711709 7.08905 0.711709 9.37347 2.93682C9.49535 3.05557 9.66061 3.12238 9.83302 3.12238C10.192 3.1223 10.4829 2.83873 10.4829 2.4889C10.4829 2.32107 10.4144 2.16004 10.2926 2.0413Z" transform="translate(11.9125 10.5337)" fill="black"/> 
<path d="M6.62459 1.30152C4.85342 -0.429833 1.97701 -0.434425 0.200075 1.29131C0.196581 1.29471 0.193087 1.29811 0.189594 1.30152H0.188294C-0.0643939 1.55002 -0.0625253 1.95115 0.192518 2.19736C0.447562 2.44356 0.859256 2.44174 1.11194 2.19324C2.37701 0.958573 4.42987 0.956831 5.69712 2.18952C5.69842 2.19078 5.69972 2.19197 5.70094 2.19324C5.95363 2.44174 6.36532 2.44356 6.62037 2.19736C6.87541 1.95115 6.87736 1.5501 6.62459 1.30152Z" transform="translate(13.7435 13.0677)" fill="black"/> 
<path d="M4.11914 7.54883H2.11523V11H0.984375V2.46875H3.80859C4.76953 2.46875 5.50781 2.6875 6.02344 3.125C6.54297 3.5625 6.80273 4.19922 6.80273 5.03516C6.80273 5.56641 6.6582 6.0293 6.36914 6.42383C6.08398 6.81836 5.68555 7.11328 5.17383 7.30859L7.17773 10.9297V11H5.9707L4.11914 7.54883ZM2.11523 6.62891H3.84375C4.40234 6.62891 4.8457 6.48438 5.17383 6.19531C5.50586 5.90625 5.67188 5.51953 5.67188 5.03516C5.67188 4.50781 5.51367 4.10352 5.19727 3.82227C4.88477 3.54102 4.43164 3.39844 3.83789 3.39453H2.11523V6.62891ZM7.92773 7.77148C7.92773 7.15039 8.04883 6.5918 8.29102 6.0957C8.53711 5.59961 8.87695 5.2168 9.31055 4.94727C9.74805 4.67773 10.2461 4.54297 10.8047 4.54297C11.668 4.54297 12.3652 4.8418 12.8965 5.43945C13.4316 6.03711 13.6992 6.83203 13.6992 7.82422V7.90039C13.6992 8.51758 13.5801 9.07227 13.3418 9.56445C13.1074 10.0527 12.7695 10.4336 12.3281 10.707C11.8906 10.9805 11.3867 11.1172 10.8164 11.1172C9.95703 11.1172 9.25977 10.8184 8.72461 10.2207C8.19336 9.62305 7.92773 8.83203 7.92773 7.84766V7.77148ZM9.01758 7.90039C9.01758 8.60352 9.17969 9.16797 9.50391 9.59375C9.83203 10.0195 10.2695 10.2324 10.8164 10.2324C11.3672 10.2324 11.8047 10.0176 12.1289 9.58789C12.4531 9.1543 12.6152 8.54883 12.6152 7.77148C12.6152 7.07617 12.4492 6.51367 12.1172 6.08398C11.7891 5.65039 11.3516 5.43359 10.8047 5.43359C10.2695 5.43359 9.83789 5.64648 9.50977 6.07227C9.18164 6.49805 9.01758 7.10742 9.01758 7.90039ZM18.9727 10.373C18.5508 10.8691 17.9316 11.1172 17.1152 11.1172C16.4395 11.1172 15.9238 10.9219 15.5684 10.5312C15.2168 10.1367 15.0391 9.55469 15.0352 8.78516V4.66016H16.1191V8.75586C16.1191 9.7168 16.5098 10.1973 17.291 10.1973C18.1191 10.1973 18.6699 9.88867 18.9434 9.27148V4.66016H20.0273V11H18.9961L18.9727 10.373ZM23.1504 3.125V4.66016H24.334V5.49805H23.1504V9.42969C23.1504 9.68359 23.2031 9.875 23.3086 10.0039C23.4141 10.1289 23.5938 10.1914 23.8477 10.1914C23.9727 10.1914 24.1445 10.168 24.3633 10.1211V11C24.0781 11.0781 23.8008 11.1172 23.5312 11.1172C23.0469 11.1172 22.6816 10.9707 22.4355 10.6777C22.1895 10.3848 22.0664 9.96875 22.0664 9.42969V5.49805H20.9121V4.66016H22.0664V3.125H23.1504ZM28.2363 11.1172C27.377 11.1172 26.6777 10.8359 26.1387 10.2734C25.5996 9.70703 25.3301 8.95117 25.3301 8.00586V7.80664C25.3301 7.17773 25.4492 6.61719 25.6875 6.125C25.9297 5.62891 26.2656 5.24219 26.6953 4.96484C27.1289 4.68359 27.5977 4.54297 28.1016 4.54297C28.9258 4.54297 29.5664 4.81445 30.0234 5.35742C30.4805 5.90039 30.709 6.67773 30.709 7.68945V8.14062H26.4141C26.4297 8.76562 26.6113 9.27148 26.959 9.6582C27.3105 10.041 27.7559 10.2324 28.2949 10.2324C28.6777 10.2324 29.002 10.1543
29.2676 9.99805C29.5332 9.8418 29.7656 9.63477 29.9648 9.37695L30.627 9.89258C30.0957 10.709 29.2988 11.1172 28.2363 11.1172ZM28.1016 5.43359C27.6641 5.43359 27.2969 5.59375 27 5.91406C26.7031 6.23047 26.5195 6.67578 26.4492 7.25H29.625V7.16797C29.5938 6.61719 29.4453 6.19141 29.1797 5.89062C28.9141 5.58594 28.5547 5.43359 28.1016 5.43359ZM35.0332 5.63281C34.8691 5.60547 34.6914 5.5918 34.5 5.5918C33.7891 5.5918 33.3066 5.89453 33.0527 6.5V11H31.9688V4.66016H33.0234L33.041 5.39258C33.3965 4.82617 33.9004 4.54297 34.5527 4.54297C34.7637 4.54297 34.9238 4.57031 35.0332 4.625V5.63281Z" transform="translate(11 58)" fill="black"/> 
</svg>