<svg width="58" height="73" viewBox="0 0 58 73" fill="none" xmlns="http://www.w3.org/2000/svg">; 
<circle cx="29" cy="29" r="29" fill="#C4C4C4"/> 
<path d="M46.6667 0H3.33333C1.4924 0 0 1.722 0 3.84615V17.3077C0 19.4319 1.4924 21.1538 3.33333 21.1538H5.83333V24.0385C5.83333 24.5695 6.20646 25 6.66667 25H10C10.4602 25 10.8333 24.5695 10.8333 24.0385V21.1538H39.1667V24.0385C39.1667 24.5695 39.5398 25 40 25H43.3333C43.7935 25 44.1667 24.5695 44.1667 24.0385V21.1538H46.6667C48.5076 21.1538 50 19.4319 50 17.3077V3.84615C50 1.722 48.5076 0 46.6667 0ZM9.16667 23.0769H7.5V21.1538H9.16667V23.0769ZM42.5 23.0769H40.8333V21.1538H42.5V23.0769ZM48.3333 17.3077C48.3333 18.3698 47.5872 19.2308 46.6667 19.2308H3.33333C2.41281 19.2308 1.66667 18.3698 1.66667 17.3077V3.84615C1.66667 2.78401 2.41281 1.92308 3.33333 1.92308H46.6667C47.5872 1.92308 48.3333 2.78401 48.3333 3.84615V17.3077Z" transform="translate(4 20)" fill="black"/> 
<path d="M5.83333 0H0.833333C0.373125 0 0 0.430529 0 0.961538V4.80769C0 5.3387 0.373125 5.76923 0.833333 5.76923V6.73077C0.833333 7.26178 1.20646 7.69231 1.66667 7.69231H5C5.46021 7.69231 5.83333 7.26178 5.83333 6.73077V5.76923C6.29354 5.76923 6.66667 5.3387 6.66667 4.80769V0.961538C6.66667 0.430529 6.29354 0 5.83333 0ZM5 4.80769H4.16667V5.76923H2.5V4.80769H1.66667V1.92308H5V4.80769Z" transform="translate(11.5 26.7308)" fill="black"/> 
<path d="M42.5 0H0.833333C0.373125 0 0 0.430529 0 0.961538V12.5C0 13.031 0.373125 13.4615 0.833333 13.4615H42.5C42.9602 13.4615 43.3333 13.031 43.3333 12.5V0.961538C43.3333 0.430529 42.9602 0 42.5 0ZM41.6667 11.5385H1.66667V1.92308H41.6667V11.5385Z" transform="translate(7.33325 23.8461)" fill="black"/> 
<path d="M5.83333 0H0.833333C0.373125 0 0 0.430529 0 0.961538V4.80769C0 5.3387 0.373125 5.76923 0.833333 5.76923V6.73077C0.833333 7.26178 1.20646 7.69231 1.66667 7.69231H5C5.46021 7.69231 5.83333 7.26178 5.83333 6.73077V5.76923C6.29354 5.76923 6.66667 5.3387 6.66667 4.80769V0.961538C6.66667 0.430529 6.29354 0 5.83333 0ZM5 4.80769H4.16667V5.76923H2.5V4.80769H1.66667V1.92308H5V4.80769Z" transform="translate(20.6666 26.7308)" fill="black"/> 
<path d="M5.83333 0H0.833333C0.373125 0 0 0.430529 0 0.961538V4.80769C0 5.3387 0.373125 5.76923 0.833333 5.76923V6.73077C0.833333 7.26178 1.20646 7.69231 1.66667 7.69231H5C5.46021 7.69231 5.83333 7.26178 5.83333 6.73077V5.76923C6.29354 5.76923 6.66667 5.3387 6.66667 4.80769V0.961538C6.66667 0.430529 6.29354 0 5.83333 0ZM5 4.80769H4.16667V5.76923H2.5V4.80769H1.66667V1.92308H5V4.80769Z" transform="translate(39.8334 26.7308)" fill="black"/> 
<path d="M5.83333 0H0.833333C0.373125 0 0 0.430529 0 0.961538V4.80769C0 5.3387 0.373125 5.76923 0.833333 5.76923V6.73077C0.833333 7.26178 1.20646 7.69231 1.66667 7.69231H5C5.46021 7.69231 5.83333 7.26178 5.83333 6.73077V5.76923C6.29354 5.76923 6.66667 5.3387 6.66667 4.80769V0.961538C6.66667 0.430529 6.29354 0 5.83333 0ZM5 4.80769H4.16667V5.76923H2.5V4.80769H1.66667V1.92308H5V4.80769Z" transform="translate(30.6666 26.7308)" fill="black"/> 
</svg>