<svg width="58" height="73" viewBox="0 0 58 73" fill="none" xmlns="http://www.w3.org/2000/svg">; 
<circle cx="29" cy="29" r="29" fill="#C4C4C4"/> 
<path d="M46.6667 0H3.33333C1.4924 0 0 1.722 0 3.84615V17.3077C0 19.4319 1.4924 21.1538 3.33333 21.1538H5.83333V24.0385C5.83333 24.5695 6.20646 25 6.66667 25H10C10.4602 25 10.8333 24.5695 10.8333 24.0385V21.1538H39.1667V24.0385C39.1667 24.5695 39.5398 25 40 25H43.3333C43.7935 25 44.1667 24.5695 44.1667 24.0385V21.1538H46.6667C48.5076 21.1538 50 19.4319 50 17.3077V3.84615C50 1.722 48.5076 0 46.6667 0ZM9.16667 23.0769H7.5V21.1538H9.16667V23.0769ZM42.5 23.0769H40.8333V21.1538H42.5V23.0769ZM48.3333 17.3077C48.3333 18.3698 47.5872 19.2308 46.6667 19.2308H3.33333C2.41281 19.2308 1.66667 18.3698 1.66667 17.3077V3.84615C1.66667 2.78401 2.41281 1.92308 3.33333 1.92308H46.6667C47.5872 1.92308 48.3333 2.78401 48.3333 3.84615V17.3077Z" transform="translate(4 20)" fill="black"/> 
<path d="M5.83333 0H0.833333C0.373125 0 0 0.430529 0 0.961538V4.80769C0 5.3387 0.373125 5.76923 0.833333 5.76923V6.73077C0.833333 7.26178 1.20646 7.69231 1.66667 7.69231H5C5.46021 7.69231 5.83333 7.26178 5.83333 6.73077V5.76923C6.29354 5.76923 6.66667 5.3387 6.66667 4.80769V0.961538C6.66667 0.430529 6.29354 0 5.83333 0ZM5 4.80769H4.16667V5.76923H2.5V4.80769H1.66667V1.92308H5V4.80769Z" transform="translate(11.5 26.7308)" fill="black"/> 
<path d="M42.5 0H0.833333C0.373125 0 0 0.430529 0 0.961538V12.5C0 13.031 0.373125 13.4615 0.833333 13.4615H42.5C42.9602 13.4615 43.3333 13.031 43.3333 12.5V0.961538C43.3333 0.430529 42.9602 0 42.5 0ZM41.6667 11.5385H1.66667V1.92308H41.6667V11.5385Z" transform="translate(7.33325 23.8461)" fill="black"/> 
<path d="M5.83333 0H0.833333C0.373125 0 0 0.430529 0 0.961538V4.80769C0 5.3387 0.373125 5.76923 0.833333 5.76923V6.73077C0.833333 7.26178 1.20646 7.69231 1.66667 7.69231H5C5.46021 7.69231 5.83333 7.26178 5.83333 6.73077V5.76923C6.29354 5.76923 6.66667 5.3387 6.66667 4.80769V0.961538C6.66667 0.430529 6.29354 0 5.83333 0ZM5 4.80769H4.16667V5.76923H2.5V4.80769H1.66667V1.92308H5V4.80769Z" transform="translate(20.6666 26.7308)" fill="black"/> 
<path d="M5.83333 0H0.833333C0.373125 0 0 0.430529 0 0.961538V4.80769C0 5.3387 0.373125 5.76923 0.833333 5.76923V6.73077C0.833333 7.26178 1.20646 7.69231 1.66667 7.69231H5C5.46021 7.69231 5.83333 7.26178 5.83333 6.73077V5.76923C6.29354 5.76923 6.66667 5.3387 6.66667 4.80769V0.961538C6.66667 0.430529 6.29354 0 5.83333 0ZM5 4.80769H4.16667V5.76923H2.5V4.80769H1.66667V1.92308H5V4.80769Z" transform="translate(39.8334 26.7308)" fill="black"/> 
<path d="M5.83333 0H0.833333C0.373125 0 0 0.430529 0 0.961538V4.80769C0 5.3387 0.373125 5.76923 0.833333 5.76923V6.73077C0.833333 7.26178 1.20646 7.69231 1.66667 7.69231H5C5.46021 7.69231 5.83333 7.26178 5.83333 6.73077V5.76923C6.29354 5.76923 6.66667 5.3387 6.66667 4.80769V0.961538C6.66667 0.430529 6.29354 0 5.83333 0ZM5 4.80769H4.16667V5.76923H2.5V4.80769H1.66667V1.92308H5V4.80769Z" transform="translate(30.6666 26.7308)" fill="black"/> 
<path d="M3.50391 7.19727C2.53906 6.91992 1.83594 6.58008 1.39453 6.17773C0.957031 5.77148 0.738281 5.27148 0.738281 4.67773C0.738281 4.00586 1.00586 3.45117 1.54102 3.01367C2.08008 2.57227 2.7793 2.35156 3.63867 2.35156C4.22461 2.35156 4.74609 2.46484 5.20312 2.69141C5.66406 2.91797 6.01953 3.23047 6.26953 3.62891C6.52344 4.02734 6.65039 4.46289 6.65039 4.93555H5.51953C5.51953 4.41992 5.35547 4.01562 5.02734 3.72266C4.69922 3.42578 4.23633 3.27734 3.63867 3.27734C3.08398 3.27734 2.65039 3.40039 2.33789 3.64648C2.0293 3.88867 1.875 4.22656 1.875 4.66016C1.875 5.00781 2.02148 5.30273 2.31445 5.54492C2.61133 5.7832 3.11328 6.00195 3.82031 6.20117C4.53125 6.40039 5.08594 6.62109 5.48438 6.86328C5.88672 7.10156 6.18359 7.38086 6.375 7.70117C6.57031 8.02148 6.66797 8.39844 6.66797 8.83203C6.66797 9.52344 6.39844 10.0781 5.85938 10.4961C5.32031 10.9102 4.59961 11.1172 3.69727 11.1172C3.11133 11.1172 2.56445 11.0059 2.05664 10.7832C1.54883 10.5566 1.15625 10.248 0.878906 9.85742C0.605469 9.4668 0.46875 9.02344 0.46875 8.52734H1.59961C1.59961 9.04297 1.78906 9.45117 2.16797
9.75195C2.55078 10.0488 3.06055 10.1973 3.69727 10.1973C4.29102 10.1973 4.74609 10.0762 5.0625 9.83398C5.37891 9.5918 5.53711 9.26172 5.53711 8.84375C5.53711 8.42578 5.39062 8.10352 5.09766 7.87695C4.80469 7.64648 4.27344 7.41992 3.50391 7.19727ZM13.5586 9.50586L14.7773 4.66016H15.8613L14.0156 11H13.1367L11.5957 6.19531L10.0957 11H9.2168L7.37695 4.66016H8.45508L9.70312 9.40625L11.1797 4.66016H12.0527L13.5586 9.50586ZM18.1465 11H17.0625V4.66016H18.1465V11ZM16.9746 2.97852C16.9746 2.80273 17.0273 2.6543 17.1328 2.5332C17.2422 2.41211 17.4023 2.35156 17.6133 2.35156C17.8242 2.35156 17.9844 2.41211 18.0938 2.5332C18.2031 2.6543 18.2578 2.80273 18.2578 2.97852C18.2578 3.1543 18.2031 3.30078 18.0938 3.41797C17.9844 3.53516 17.8242 3.59375 17.6133 3.59375C17.4023 3.59375 17.2422 3.53516 17.1328 3.41797C17.0273 3.30078 16.9746 3.1543 16.9746 2.97852ZM21.3574 3.125V4.66016H22.541V5.49805H21.3574V9.42969C21.3574 9.68359 21.4102 9.875 21.5156 10.0039C21.6211 10.1289 21.8008 10.1914 22.0547 10.1914C22.1797 10.1914 22.3516 10.168 22.5703 10.1211V11C22.2852 11.0781 22.0078 11.1172 21.7383 11.1172C21.2539 11.1172 20.8887 10.9707 20.6426 10.6777C20.3965 10.3848 20.2734 9.96875 20.2734 9.42969V5.49805H19.1191V4.66016H20.2734V3.125H21.3574ZM26.3555 10.2324C26.7422 10.2324 27.0801 10.1152 27.3691 9.88086C27.6582 9.64648 27.8184 9.35352 27.8496 9.00195H28.875C28.8555 9.36523 28.7305 9.71094 28.5 10.0391C28.2695 10.3672 27.9609 10.6289 27.5742 10.8242C27.1914 11.0195 26.7852 11.1172 26.3555 11.1172C25.4922 11.1172 24.8047 10.8301 24.293 10.2559C23.7852 9.67773 23.5312 8.88867 23.5312 7.88867V7.70703C23.5312 7.08984 23.6445 6.54102 23.8711 6.06055C24.0977 5.58008 24.4219 5.20703 24.8438 4.94141C25.2695 4.67578 25.7715 4.54297 26.3496 4.54297C27.0605 4.54297 27.6504 4.75586 28.1191 5.18164C28.5918 5.60742 28.8438 6.16016 28.875 6.83984H27.8496C27.8184 6.42969 27.6621 6.09375 27.3809 5.83203C27.1035 5.56641 26.7598 5.43359 26.3496 5.43359C25.7988 5.43359 25.3711 5.63281 25.0664 6.03125C24.7656 6.42578 24.6152 6.99805 24.6152 7.74805V7.95312C24.6152 8.68359 24.7656 9.24609 25.0664 9.64062C25.3672 10.0352 25.7969 10.2324 26.3555 10.2324ZM31.1777 5.42773C31.6582 4.83789 32.2832 4.54297 33.0527 4.54297C34.3926 4.54297 35.0684 5.29883 35.0801 6.81055V11H33.9961V6.80469C33.9922 6.34766 33.8867 6.00977 33.6797 5.79102C33.4766 5.57227 33.1582 5.46289 32.7246 5.46289C32.373 5.46289 32.0645 5.55664 31.7988 5.74414C31.5332 5.93164 31.3262 6.17773 31.1777 6.48242V11H30.0938V2H31.1777V5.42773Z" transform="translate(11 58)" fill="black"/> 
</svg>