<?xml version="1.0" encoding="utf-8"?>
<!-- Generator: Adobe Illustrator 21.0.2, SVG Export Plug-In . SVG Version: 6.00 Build 0)  -->
<svg version="1.1" id="Слой_1" xmlns="http://www.w3.org/2000/svg" xmlns:xlink="http://www.w3.org/1999/xlink" x="0px" y="0px"
	 viewBox="0 0 800 600" style="enable-background:new 0 0 800 600;" xml:space="preserve">
<style type="text/css">
	.st0{fill:#E7E6E1;stroke:#0E0F0F;stroke-width:0.75;stroke-miterlimit:10;}
	.st1{fill:#E7E6E1;}
	.st2{fill:#C1BFB8;}
	.st3{fill:none;stroke:#0E0F0F;stroke-miterlimit:10;}
	.st4{fill:none;stroke:#0E0F0F;stroke-width:0.75;stroke-miterlimit:10;}
	.st5{fill:#0E0F0F;}
	.st6{font-family:'TimesNewRomanPSMT';}
	.st7{font-size:15.2528px;}
	.st8{font-size:18.2997px;}
	.st9{font-size:14.9356px;}
	.st10{fill:#393E66;}
	.st11{font-size:25.3174px;}
	.st12{font-size:18px;}
	.st13{fill:#454A66;}
	.st14{fill:#FFFFFF;stroke:#0E0F0F;stroke-width:0.75;stroke-miterlimit:10;}
	.st15{fill:#FFFFFF;stroke:#0E0F0F;stroke-miterlimit:10;}
	.st16{font-size:26.3691px;}
	.st17{fill:#FFFFFF;}
	.st18{font-size:18.7996px;}
	.st19{font-size:14px;}
	.st20{fill:#E6E6E6;stroke:#000000;stroke-miterlimit:10;}
	.st21{fill:#FFFFFF;stroke:#000000;stroke-width:0.5;stroke-miterlimit:10;}
	.st22{fill:#FFFFFF;stroke:#000000;stroke-width:0.75;stroke-miterlimit:10;}
	.st23{fill:none;stroke:#000000;stroke-width:0.5;stroke-miterlimit:10;}
	.st24{fill:none;stroke:#000000;stroke-width:0.25;stroke-miterlimit:10;}
	.st25{fill:#FFFFFF;stroke:#000000;stroke-miterlimit:10;}
	.st26{fill:#FFFFFF;stroke:#000000;stroke-width:0.15;stroke-miterlimit:10;}
	.st27{fill:#FFFFFF;stroke:#000000;stroke-width:2;stroke-miterlimit:10;}
	.st28{stroke:#000000;stroke-miterlimit:10;}
	.st29{fill:none;stroke:#000000;stroke-miterlimit:10;}
	.st30{font-size:6.4781px;}
	.st31{fill:#E6E6E6;stroke:#000000;stroke-width:0.5;stroke-miterlimit:10;}
	.st32{fill:none;stroke:#000000;stroke-width:3;stroke-miterlimit:10;}
</style>
<rect y="415" class="st0" width="799" height="185.2"/>
<rect x="-0.5" y="66.7" class="st1" width="799.5" height="28.3"/>
<rect y="0" class="st2" width="799" height="66.7"/>
<rect x="577.5" y="95" class="st0" width="221.5" height="320"/>
<circle class="st3" cx="0" cy="0" r="0"/>
<rect x="154.8" y="415.2" class="st4" width="164.5" height="185"/>
<text id="_Файл" transform="matrix(1.2719 0 0 1 10.1416 81.6902)" class="st5 st6 st7">Файл</text>
<text transform="matrix(0.8614 0 0 1 84.7134 82.388)" class="st5 st6 st8">Редактирование</text>
<text transform="matrix(1.3961 0 0 1 213.7031 80.4436)" class="st5 st6 st9">Справка</text>
<text transform="matrix(1.0205 0 0 1 644.5713 131.927)" class="st10 st6 st11">Задание</text>
<text transform="matrix(1 0 0 1 16 430)" class="st5 st6 st12">Routers</text>
<text transform="matrix(1 0 0 1 164.7575 430.0001)" class="st5 st6 st12">Switches</text>
<text transform="matrix(1 0 0 1 325.8237 432.3969)" class="st5 st6 st12">Computer</text>
<text transform="matrix(1 0 0 1 491 432.3972)" class="st5 st6 st12">Connection</text>
<g id="Слой_2">
</g>
<text transform="matrix(1 0 0 1 10.1417 28.8542)" class="st13 st6 st12">COURS_COMPUTER_NETWORKS</text>
<rect y="95" class="st14" width="577.5" height="320"/>
<rect x="763.1" y="239.3" class="st15" width="15.7" height="15.7"/>
<rect x="763.1" y="198.6" class="st15" width="15.7" height="15.7"/>
<rect x="763.1" y="161.7" class="st15" width="15.7" height="15.7"/>
<text transform="matrix(1.0479 0 0 1 595 183.6277)" class="st6 st16">1. ...</text>
<text transform="matrix(1.0479 0 0 1 595 215.2283)" class="st6 st16">2. ...</text>
<text transform="matrix(1.0479 0 0 1 595 246.9275)" class="st6 st16">3. ...</text>
<rect x="635.3" y="333.6" class="st17" width="118.6" height="42.1"/>
<text transform="matrix(1.08 0 0 1 653.2861 359.2352)" class="st5 st6 st18">Проверка</text>
<rect x="1.1" y="95.2" class="st2" width="109.9" height="126.9"/>
<rect x="1.1" y="206.4" class="st1" width="109.9" height="15.6"/>
<text transform="matrix(1 0 0 1 12 119.2)"><tspan x="0" y="0" class="st6 st19">Создать</tspan><tspan x="0" y="16.8" class="st6 st19"> </tspan><tspan x="0" y="33.6" class="st6 st19">Открыть</tspan><tspan x="0" y="67.2" class="st6 st19">Сохранить</tspan><tspan x="0" y="100.8" class="st6 st19">Выход</tspan></text>
<path class="st20" d="M285.2,548.4H179c-7.8,0-14.2-6.4-14.2-14.2v-75.6c0-7.8,6.4-14.2,14.2-14.2h106.3c7.8,0,14.2,6.4,14.2,14.2
	v75.6C299.4,542,293.1,548.4,285.2,548.4z"/>
<polygon class="st21" points="286.7,503.2 210.9,540.3 186.7,498.4 262.4,461.2 "/>
<polygon class="st22" points="292.2,490.2 212.3,529.4 190.8,492.2 270.7,453 "/>
<line class="st23" x1="186.7" y1="498.4" x2="190.8" y2="492.2"/>
<line class="st24" x1="210.9" y1="540.3" x2="212.3" y2="529.4"/>
<line class="st23" x1="292.2" y1="490.2" x2="286.7" y2="503.2"/>
<polygon class="st25" points="282.2,497.3 225.3,525.2 227.9,529.9 284.8,501.9 "/>
<polygon class="st26" points="188.9,502.3 188.4,501.6 194.6,498.7 195.1,499.4 "/>
<polygon class="st27" points="288.7,488.5 213.1,525.6 194.3,493.2 270,456.1 "/>
<line class="st28" x1="261.6" y1="507.4" x2="264.2" y2="512.1"/>
<line class="st29" x1="256.5" y1="510" x2="259" y2="514.7"/>
<line class="st29" x1="250.7" y1="512.7" x2="253.3" y2="517.3"/>
<line class="st29" x1="245" y1="515.9" x2="247.5" y2="520.5"/>
<line class="st29" x1="265.7" y1="505.3" x2="268.2" y2="509.9"/>
<line class="st29" x1="271.4" y1="502.6" x2="274" y2="507.3"/>
<text transform="matrix(0.9434 -0.4556 0.4945 0.8692 198.243 498.0397)" class="st6 st30">Switches</text>
<polygon class="st26" points="187.7,500.2 187.3,499.5 193.5,496.5 193.9,497.3 "/>
<polygon class="st26" points="190,504.4 189.6,503.7 195.8,500.8 196.2,501.5 "/>
<polygon class="st26" points="191.2,506 190.7,505.3 196.9,502.4 197.4,503.1 "/>
<path class="st20" d="M447.1,548.4H340c-7.8,0-14.2-6.4-14.2-14.2v-75.9c0-7.8,6.4-14.2,14.2-14.2h107.1c7.8,0,14.2,6.4,14.2,14.2
	v75.9C461.3,542,455,548.4,447.1,548.4z"/>
<rect x="354.6" y="459" class="st21" width="20.2" height="55.3"/>
<rect x="382.2" y="459" class="st25" width="64.3" height="39.7"/>
<rect x="354.6" y="498.6" class="st31" width="20.2" height="3.9"/>
<ellipse class="st31" cx="364.7" cy="508.3" rx="2" ry="1.8"/>
<path class="st31" d="M370.2,467.3h-11.1c-1,0-1.8-0.8-1.8-1.8v-0.3c0-1,0.8-1.8,1.8-1.8h11.1c1,0,1.8,0.8,1.8,1.8v0.3
	C372,466.5,371.2,467.3,370.2,467.3z"/>
<path class="st31" d="M370.2,475.1h-11.1c-1,0-1.8-0.8-1.8-1.8V473c0-1,0.8-1.8,1.8-1.8h11.1c1,0,1.8,0.8,1.8,1.8v0.3
	C372,474.3,371.2,475.1,370.2,475.1z"/>
<path class="st21" d="M429.5,509.4h-30.2c-1.5,0-2.8-1.2-2.8-2.8v-0.5c0-1.5,1.2-2.8,2.8-2.8h30.2c1.5,0,2.8,1.2,2.8,2.8v0.5
	C432.2,508.2,431,509.4,429.5,509.4z"/>
<rect x="387.4" y="463.4" class="st20" width="53.6" height="30.8"/>
<path class="st20" d="M132.5,548.4H26.2c-7.8,0-14.2-6.4-14.2-14.2v-76.4c0-7.8,6.4-14.2,14.2-14.2h106.2c7.8,0,14.2,6.4,14.2,14.2
	v76.4C146.7,542,140.3,548.4,132.5,548.4z"/>
<ellipse class="st21" cx="71.2" cy="488.9" rx="26.1" ry="23.1"/>
<ellipse class="st31" cx="70.8" cy="486" rx="25.7" ry="20.2"/>
<path class="st21" d="M79.1,477c2.1-4.8,2.3-9.2,0.4-10c-1.9-0.7-5.2,2.5-7.4,7.3c-2.1,4.8-2.3,9.2-0.4,10
	C73.7,485,77,481.7,79.1,477z"/>
<path class="st21" d="M71,497.7c1.4-4.8,0.9-9.1-1.2-9.6c-2-0.5-4.8,3-6.2,7.8c-1.4,4.8-0.9,9.1,1.2,9.6
	C66.9,506,69.6,502.5,71,497.7z"/>
<path class="st21" d="M85.5,486.2c-5.9-1.8-11.2-1.7-11.8,0.1c-0.6,1.8,3.6,4.7,9.5,6.5c5.9,1.8,11.2,1.7,11.8-0.1
	C95.6,490.8,91.4,487.9,85.5,486.2z"/>
<path class="st21" d="M56.3,483.7c5.1,2.7,10.2,3.6,11.2,1.9c1-1.7-2.3-5.2-7.4-7.9c-5.1-2.7-10.2-3.6-11.2-1.9
	C47.9,477.4,51.2,481,56.3,483.7z"/>
<rect x="470.8" y="415.2" class="st4" width="164.5" height="185"/>
<text transform="matrix(1 0 0 1 648.3334 432.3972)" class="st5 st6 st12">Wi-Fi</text>
<path class="st20" d="M767.9,543.4H657.4c-7.8,0-14.2-6.4-14.2-14.2v-73.9c0-7.8,6.4-14.2,14.2-14.2h110.5c7.8,0,14.2,6.4,14.2,14.2
	v73.9C782.1,537.1,775.7,543.4,767.9,543.4z"/>
<line class="st23" x1="688.4" y1="451.4" x2="665" y2="510.5"/>
<line class="st23" x1="688.4" y1="451.4" x2="717.9" y2="510.5"/>
<line class="st23" x1="669.9" y1="498.1" x2="711.7" y2="498.1"/>
<line class="st23" x1="675.3" y1="484.6" x2="705" y2="484.6"/>
<line class="st23" x1="680.6" y1="471.2" x2="698.3" y2="471.2"/>
<path class="st23" d="M675.2,472c-4-10-0.1-20.5,8.8-23.3"/>
<path class="st23" d="M668.8,468.6c-5.2-9.6-2.5-20.3,6-24"/>
<path class="st23" d="M663.2,467.2c-5.6-9.4-3.3-20.2,5-24.2"/>
<path class="st23" d="M702.9,472c3.9-10.1-0.3-20.5-9.3-23.3"/>
<path class="st23" d="M709.5,468.6c3.1-10.3-1.8-20.4-11.1-22.7"/>
<path class="st23" d="M714.3,466.6c3.5-10.2-1.1-20.5-10.3-23"/>
<path class="st20" d="M575.7,512h-76c-7.8,0-14.2-6.4-14.2-14.2v-44.3c0-7.8,6.4-14.2,14.2-14.2h76c7.8,0,14.2,6.4,14.2,14.2v44.3
	C589.9,505.7,583.6,512,575.7,512z"/>
<line class="st32" x1="506.6" y1="488.5" x2="559.6" y2="445.7"/>
<path class="st20" d="M576.6,594.5h-76.9c-7.8,0-14.2-6.4-14.2-14.2v-43.7c0-7.8,6.4-14.2,14.2-14.2h76.9c7.8,0,14.2,6.4,14.2,14.2
	v43.7C590.8,588.1,584.5,594.5,576.6,594.5z"/>
<line class="st29" x1="508.5" y1="581.5" x2="515.8" y2="574.4"/>
<line class="st29" x1="520.2" y1="570" x2="527.5" y2="562.9"/>
<line class="st29" x1="531.5" y1="559" x2="538.9" y2="551.8"/>
<line class="st29" x1="542.7" y1="548" x2="550.1" y2="540.9"/>
<line class="st29" x1="553" y1="538" x2="560.4" y2="530.8"/>
<line class="st29" x1="496.7" y1="592.9" x2="504.1" y2="585.8"/>
</svg>
